<mxfile host="app.diagrams.net" modified="2023-01-18T03:57:50.559Z" agent="5.0 (Windows NT 10.0; Win64; x64) AppleWebKit/537.36 (KHTML, like Gecko) Chrome/109.0.0.0 Safari/537.36" version="20.8.5" etag="ypAtaEjxtEl6pqPwxll-" type="github">
  <diagram id="1hNGyAhoktvIWEDg35Iw" name="第 1 页">
    <mxGraphModel dx="2442" dy="758" grid="1" gridSize="10" guides="1" tooltips="1" connect="1" arrows="1" fold="1" page="1" pageScale="1" pageWidth="827" pageHeight="1169" math="0" shadow="0">
      <root>
        <mxCell id="0" />
        <mxCell id="1" parent="0" />
        <mxCell id="P1cmPxdHv0IeEAoGRU_N-33" style="edgeStyle=orthogonalEdgeStyle;rounded=0;orthogonalLoop=1;jettySize=auto;html=1;entryX=0;entryY=0.5;entryDx=0;entryDy=0;" edge="1" parent="1" source="P1cmPxdHv0IeEAoGRU_N-2" target="P1cmPxdHv0IeEAoGRU_N-14">
          <mxGeometry relative="1" as="geometry" />
        </mxCell>
        <mxCell id="P1cmPxdHv0IeEAoGRU_N-34" style="edgeStyle=orthogonalEdgeStyle;rounded=0;orthogonalLoop=1;jettySize=auto;html=1;entryX=0;entryY=0.5;entryDx=0;entryDy=0;" edge="1" parent="1" source="P1cmPxdHv0IeEAoGRU_N-2" target="P1cmPxdHv0IeEAoGRU_N-5">
          <mxGeometry relative="1" as="geometry" />
        </mxCell>
        <mxCell id="P1cmPxdHv0IeEAoGRU_N-35" style="edgeStyle=orthogonalEdgeStyle;rounded=0;orthogonalLoop=1;jettySize=auto;html=1;entryX=0;entryY=0.5;entryDx=0;entryDy=0;" edge="1" parent="1" source="P1cmPxdHv0IeEAoGRU_N-2" target="P1cmPxdHv0IeEAoGRU_N-22">
          <mxGeometry relative="1" as="geometry" />
        </mxCell>
        <mxCell id="P1cmPxdHv0IeEAoGRU_N-2" value="Actor" style="shape=umlActor;verticalLabelPosition=bottom;verticalAlign=top;html=1;outlineConnect=0;" vertex="1" parent="1">
          <mxGeometry x="-110" y="303.75" width="110" height="182.5" as="geometry" />
        </mxCell>
        <mxCell id="P1cmPxdHv0IeEAoGRU_N-4" style="edgeStyle=orthogonalEdgeStyle;rounded=0;orthogonalLoop=1;jettySize=auto;html=1;entryX=0;entryY=0.5;entryDx=0;entryDy=0;entryPerimeter=0;fontSize=24;" edge="1" parent="1" source="P1cmPxdHv0IeEAoGRU_N-5" target="P1cmPxdHv0IeEAoGRU_N-11">
          <mxGeometry relative="1" as="geometry" />
        </mxCell>
        <mxCell id="P1cmPxdHv0IeEAoGRU_N-5" value="" style="rounded=1;whiteSpace=wrap;html=1;strokeWidth=2;fillWeight=4;hachureGap=8;hachureAngle=45;sketch=1;fontSize=24;fillColor=#f5f5f5;fontColor=#333333;strokeColor=#666666;" vertex="1" parent="1">
          <mxGeometry x="260" y="60" width="370" height="190" as="geometry" />
        </mxCell>
        <mxCell id="P1cmPxdHv0IeEAoGRU_N-6" value="电商项目" style="text;strokeColor=none;fillColor=none;html=1;fontSize=24;fontStyle=1;verticalAlign=middle;align=center;" vertex="1" parent="1">
          <mxGeometry x="395" y="70" width="100" height="40" as="geometry" />
        </mxCell>
        <mxCell id="P1cmPxdHv0IeEAoGRU_N-7" value="商品管理" style="rounded=1;whiteSpace=wrap;html=1;strokeWidth=2;fillWeight=4;hachureGap=8;hachureAngle=45;fillColor=#d5e8d4;sketch=1;fontSize=24;strokeColor=#82b366;" vertex="1" parent="1">
          <mxGeometry x="295" y="120" width="110" height="45" as="geometry" />
        </mxCell>
        <mxCell id="P1cmPxdHv0IeEAoGRU_N-8" value="订单管理" style="rounded=1;whiteSpace=wrap;html=1;strokeWidth=2;fillWeight=4;hachureGap=8;hachureAngle=45;fillColor=#d5e8d4;sketch=1;fontSize=24;strokeColor=#82b366;" vertex="1" parent="1">
          <mxGeometry x="295" y="190" width="106" height="40" as="geometry" />
        </mxCell>
        <mxCell id="P1cmPxdHv0IeEAoGRU_N-9" value="用户管理" style="rounded=1;whiteSpace=wrap;html=1;strokeWidth=2;fillWeight=4;hachureGap=8;hachureAngle=45;fillColor=#d5e8d4;sketch=1;fontSize=24;strokeColor=#82b366;" vertex="1" parent="1">
          <mxGeometry x="490" y="120" width="120" height="45" as="geometry" />
        </mxCell>
        <mxCell id="P1cmPxdHv0IeEAoGRU_N-10" value="广告管理" style="rounded=1;whiteSpace=wrap;html=1;strokeWidth=2;fillWeight=4;hachureGap=8;hachureAngle=45;fillColor=#d5e8d4;sketch=1;fontSize=24;strokeColor=#82b366;" vertex="1" parent="1">
          <mxGeometry x="490" y="190" width="110" height="40" as="geometry" />
        </mxCell>
        <mxCell id="P1cmPxdHv0IeEAoGRU_N-11" value="Database" style="shape=cylinder3;whiteSpace=wrap;html=1;boundedLbl=1;backgroundOutline=1;size=15;fontSize=24;fillColor=#dae8fc;strokeColor=#6c8ebf;" vertex="1" parent="1">
          <mxGeometry x="740" y="117.5" width="140" height="75" as="geometry" />
        </mxCell>
        <mxCell id="P1cmPxdHv0IeEAoGRU_N-13" style="edgeStyle=orthogonalEdgeStyle;rounded=0;orthogonalLoop=1;jettySize=auto;html=1;entryX=0;entryY=0.5;entryDx=0;entryDy=0;entryPerimeter=0;fontSize=24;" edge="1" parent="1" source="P1cmPxdHv0IeEAoGRU_N-14" target="P1cmPxdHv0IeEAoGRU_N-20">
          <mxGeometry relative="1" as="geometry" />
        </mxCell>
        <mxCell id="P1cmPxdHv0IeEAoGRU_N-14" value="" style="rounded=1;whiteSpace=wrap;html=1;strokeWidth=2;fillWeight=4;hachureGap=8;hachureAngle=45;sketch=1;fontSize=24;fillColor=#f5f5f5;fontColor=#333333;strokeColor=#666666;" vertex="1" parent="1">
          <mxGeometry x="260" y="300" width="370" height="190" as="geometry" />
        </mxCell>
        <mxCell id="P1cmPxdHv0IeEAoGRU_N-15" value="后台系统" style="text;strokeColor=none;fillColor=none;html=1;fontSize=24;fontStyle=1;verticalAlign=middle;align=center;" vertex="1" parent="1">
          <mxGeometry x="395" y="310" width="100" height="40" as="geometry" />
        </mxCell>
        <mxCell id="P1cmPxdHv0IeEAoGRU_N-16" value="物流管理" style="rounded=1;whiteSpace=wrap;html=1;strokeWidth=2;fillWeight=4;hachureGap=8;hachureAngle=45;fillColor=#d5e8d4;sketch=1;fontSize=24;strokeColor=#82b366;" vertex="1" parent="1">
          <mxGeometry x="295" y="360" width="110" height="45" as="geometry" />
        </mxCell>
        <mxCell id="P1cmPxdHv0IeEAoGRU_N-17" value="订单管理" style="rounded=1;whiteSpace=wrap;html=1;strokeWidth=2;fillWeight=4;hachureGap=8;hachureAngle=45;fillColor=#d5e8d4;sketch=1;fontSize=24;strokeColor=#82b366;" vertex="1" parent="1">
          <mxGeometry x="295" y="430" width="106" height="40" as="geometry" />
        </mxCell>
        <mxCell id="P1cmPxdHv0IeEAoGRU_N-18" value="用户管理" style="rounded=1;whiteSpace=wrap;html=1;strokeWidth=2;fillWeight=4;hachureGap=8;hachureAngle=45;fillColor=#d5e8d4;sketch=1;fontSize=24;strokeColor=#82b366;" vertex="1" parent="1">
          <mxGeometry x="490" y="360" width="120" height="45" as="geometry" />
        </mxCell>
        <mxCell id="P1cmPxdHv0IeEAoGRU_N-19" value="商家管理" style="rounded=1;whiteSpace=wrap;html=1;strokeWidth=2;fillWeight=4;hachureGap=8;hachureAngle=45;fillColor=#d5e8d4;sketch=1;fontSize=24;strokeColor=#82b366;" vertex="1" parent="1">
          <mxGeometry x="490" y="430" width="110" height="40" as="geometry" />
        </mxCell>
        <mxCell id="P1cmPxdHv0IeEAoGRU_N-20" value="Database" style="shape=cylinder3;whiteSpace=wrap;html=1;boundedLbl=1;backgroundOutline=1;size=15;fontSize=24;fillColor=#dae8fc;strokeColor=#6c8ebf;" vertex="1" parent="1">
          <mxGeometry x="740" y="357.5" width="140" height="75" as="geometry" />
        </mxCell>
        <mxCell id="P1cmPxdHv0IeEAoGRU_N-21" style="edgeStyle=orthogonalEdgeStyle;rounded=0;orthogonalLoop=1;jettySize=auto;html=1;entryX=0;entryY=0.5;entryDx=0;entryDy=0;entryPerimeter=0;fontSize=24;" edge="1" parent="1" source="P1cmPxdHv0IeEAoGRU_N-22" target="P1cmPxdHv0IeEAoGRU_N-28">
          <mxGeometry relative="1" as="geometry" />
        </mxCell>
        <mxCell id="P1cmPxdHv0IeEAoGRU_N-22" value="" style="rounded=1;whiteSpace=wrap;html=1;strokeWidth=2;fillWeight=4;hachureGap=8;hachureAngle=45;sketch=1;fontSize=24;fillColor=#f5f5f5;fontColor=#333333;strokeColor=#666666;" vertex="1" parent="1">
          <mxGeometry x="260" y="540" width="370" height="190" as="geometry" />
        </mxCell>
        <mxCell id="P1cmPxdHv0IeEAoGRU_N-23" value="广告系统" style="text;strokeColor=none;fillColor=none;html=1;fontSize=24;fontStyle=1;verticalAlign=middle;align=center;" vertex="1" parent="1">
          <mxGeometry x="395" y="550" width="100" height="40" as="geometry" />
        </mxCell>
        <mxCell id="P1cmPxdHv0IeEAoGRU_N-24" value="广告管理" style="rounded=1;whiteSpace=wrap;html=1;strokeWidth=2;fillWeight=4;hachureGap=8;hachureAngle=45;fillColor=#d5e8d4;sketch=1;fontSize=24;strokeColor=#82b366;" vertex="1" parent="1">
          <mxGeometry x="295" y="600" width="110" height="45" as="geometry" />
        </mxCell>
        <mxCell id="P1cmPxdHv0IeEAoGRU_N-25" value="报表管理" style="rounded=1;whiteSpace=wrap;html=1;strokeWidth=2;fillWeight=4;hachureGap=8;hachureAngle=45;fillColor=#d5e8d4;sketch=1;fontSize=24;strokeColor=#82b366;" vertex="1" parent="1">
          <mxGeometry x="295" y="670" width="106" height="40" as="geometry" />
        </mxCell>
        <mxCell id="P1cmPxdHv0IeEAoGRU_N-26" value="营销管理" style="rounded=1;whiteSpace=wrap;html=1;strokeWidth=2;fillWeight=4;hachureGap=8;hachureAngle=45;fillColor=#d5e8d4;sketch=1;fontSize=24;strokeColor=#82b366;" vertex="1" parent="1">
          <mxGeometry x="490" y="600" width="120" height="45" as="geometry" />
        </mxCell>
        <mxCell id="P1cmPxdHv0IeEAoGRU_N-27" value="创意库管理" style="rounded=1;whiteSpace=wrap;html=1;strokeWidth=2;fillWeight=4;hachureGap=8;hachureAngle=45;fillColor=#d5e8d4;sketch=1;fontSize=24;strokeColor=#82b366;" vertex="1" parent="1">
          <mxGeometry x="485" y="670" width="130" height="40" as="geometry" />
        </mxCell>
        <mxCell id="P1cmPxdHv0IeEAoGRU_N-28" value="Database" style="shape=cylinder3;whiteSpace=wrap;html=1;boundedLbl=1;backgroundOutline=1;size=15;fontSize=24;fillColor=#dae8fc;strokeColor=#6c8ebf;" vertex="1" parent="1">
          <mxGeometry x="740" y="597.5" width="140" height="75" as="geometry" />
        </mxCell>
        <mxCell id="P1cmPxdHv0IeEAoGRU_N-36" value="&lt;font style=&quot;font-size: 24px;&quot;&gt;按照业务线垂直划分&lt;/font&gt;" style="text;html=1;strokeColor=none;fillColor=none;align=center;verticalAlign=middle;whiteSpace=wrap;rounded=0;" vertex="1" parent="1">
          <mxGeometry x="-150" y="180" width="230" height="30" as="geometry" />
        </mxCell>
      </root>
    </mxGraphModel>
  </diagram>
</mxfile>
